<mxfile host="app.diagrams.net" agent="Mozilla/5.0 (Windows NT 10.0; Win64; x64) AppleWebKit/537.36 (KHTML, like Gecko) Chrome/127.0.0.0 Safari/537.36" version="24.7.6">
  <diagram name="Pagina-1" id="-nhw1KU0vJsilosJmQMC">
    <mxGraphModel dx="695" dy="440" grid="1" gridSize="10" guides="1" tooltips="1" connect="1" arrows="1" fold="1" page="1" pageScale="1" pageWidth="1169" pageHeight="827" math="0" shadow="0">
      <root>
        <mxCell id="0" />
        <mxCell id="1" parent="0" />
        <mxCell id="RvI-carBqjRFLfMSmiOk-6" value="&lt;font style=&quot;font-size: 12px;&quot;&gt;INTERNET&lt;/font&gt;" style="image;html=1;labelBackgroundColor=#ffffff;image=img/lib/clip_art/networking/Cloud_128x128.png;rounded=1;shadow=0;comic=0;strokeWidth=2;fontSize=22;labelPosition=center;verticalLabelPosition=top;align=center;verticalAlign=bottom;" parent="1" vertex="1">
          <mxGeometry x="460" y="180" width="80" height="80" as="geometry" />
        </mxCell>
        <mxCell id="RvI-carBqjRFLfMSmiOk-8" value="" style="group" parent="1" vertex="1" connectable="0">
          <mxGeometry x="200" y="60" width="190" height="190" as="geometry" />
        </mxCell>
        <mxCell id="RvI-carBqjRFLfMSmiOk-1" value="" style="rounded=1;whiteSpace=wrap;html=1;" parent="RvI-carBqjRFLfMSmiOk-8" vertex="1">
          <mxGeometry width="190" height="190" as="geometry" />
        </mxCell>
        <mxCell id="RvI-carBqjRFLfMSmiOk-2" value="UI Components" style="rounded=1;whiteSpace=wrap;html=1;fillColor=#FFFFCC;" parent="RvI-carBqjRFLfMSmiOk-8" vertex="1">
          <mxGeometry x="20" y="60" width="150" height="30" as="geometry" />
        </mxCell>
        <mxCell id="RvI-carBqjRFLfMSmiOk-4" value="Event Handler" style="rounded=1;whiteSpace=wrap;html=1;fillColor=#CCCC00;" parent="RvI-carBqjRFLfMSmiOk-8" vertex="1">
          <mxGeometry x="20" y="100" width="150" height="30" as="geometry" />
        </mxCell>
        <mxCell id="RvI-carBqjRFLfMSmiOk-5" value="REST Generator" style="rounded=1;whiteSpace=wrap;html=1;fillColor=#CCFFFF;" parent="RvI-carBqjRFLfMSmiOk-8" vertex="1">
          <mxGeometry x="20" y="140" width="150" height="30" as="geometry" />
        </mxCell>
        <mxCell id="RvI-carBqjRFLfMSmiOk-7" value="CLIENT" style="text;html=1;align=center;verticalAlign=middle;whiteSpace=wrap;rounded=0;" parent="RvI-carBqjRFLfMSmiOk-8" vertex="1">
          <mxGeometry x="65" y="5" width="60" height="30" as="geometry" />
        </mxCell>
        <mxCell id="RvI-carBqjRFLfMSmiOk-22" value="" style="group" parent="1" vertex="1" connectable="0">
          <mxGeometry x="608" y="140" width="190" height="240" as="geometry" />
        </mxCell>
        <mxCell id="RvI-carBqjRFLfMSmiOk-10" value="" style="rounded=1;whiteSpace=wrap;html=1;container=0;" parent="RvI-carBqjRFLfMSmiOk-22" vertex="1">
          <mxGeometry width="190" height="240" as="geometry" />
        </mxCell>
        <mxCell id="RvI-carBqjRFLfMSmiOk-11" value="Controller" style="rounded=1;whiteSpace=wrap;html=1;container=0;fillColor=#CCFFFF;" parent="RvI-carBqjRFLfMSmiOk-22" vertex="1">
          <mxGeometry x="20" y="60" width="150" height="30" as="geometry" />
        </mxCell>
        <mxCell id="RvI-carBqjRFLfMSmiOk-12" value="Service" style="rounded=1;whiteSpace=wrap;html=1;container=0;fillColor=#FF99FF;" parent="RvI-carBqjRFLfMSmiOk-22" vertex="1">
          <mxGeometry x="20" y="100" width="150" height="30" as="geometry" />
        </mxCell>
        <mxCell id="RvI-carBqjRFLfMSmiOk-13" value="Model" style="rounded=1;whiteSpace=wrap;html=1;container=0;fillColor=#CCCCCC;" parent="RvI-carBqjRFLfMSmiOk-22" vertex="1">
          <mxGeometry x="20" y="140" width="150" height="30" as="geometry" />
        </mxCell>
        <mxCell id="RvI-carBqjRFLfMSmiOk-14" value="SERVER" style="text;html=1;align=center;verticalAlign=middle;whiteSpace=wrap;rounded=0;container=0;" parent="RvI-carBqjRFLfMSmiOk-22" vertex="1">
          <mxGeometry x="65" y="5" width="60" height="30" as="geometry" />
        </mxCell>
        <mxCell id="RvI-carBqjRFLfMSmiOk-21" value="Data Base" style="rounded=1;whiteSpace=wrap;html=1;container=0;fillColor=#99FF33;" parent="RvI-carBqjRFLfMSmiOk-22" vertex="1">
          <mxGeometry x="20" y="180" width="150" height="30" as="geometry" />
        </mxCell>
        <mxCell id="RvI-carBqjRFLfMSmiOk-23" value="" style="shape=flexArrow;endArrow=classic;startArrow=classic;html=1;rounded=0;exitX=1;exitY=0.5;exitDx=0;exitDy=0;width=5;endSize=4.395;endWidth=11.5;startWidth=11.5;startSize=4.395;entryX=-0.022;entryY=0.432;entryDx=0;entryDy=0;entryPerimeter=0;fillColor=#FFFFFF;" parent="1" source="RvI-carBqjRFLfMSmiOk-5" target="RvI-carBqjRFLfMSmiOk-6" edge="1">
          <mxGeometry width="100" height="100" relative="1" as="geometry">
            <mxPoint x="530" y="270" as="sourcePoint" />
            <mxPoint x="450" y="215" as="targetPoint" />
            <Array as="points">
              <mxPoint x="410" y="215" />
            </Array>
          </mxGeometry>
        </mxCell>
        <mxCell id="RvI-carBqjRFLfMSmiOk-24" value="" style="shape=flexArrow;endArrow=classic;startArrow=classic;html=1;rounded=0;exitX=1;exitY=0.5;exitDx=0;exitDy=0;width=5;endSize=4.395;endWidth=11.5;startWidth=11.5;startSize=4.395;entryX=-0.022;entryY=0.432;entryDx=0;entryDy=0;entryPerimeter=0;fillColor=#FFFFFF;" parent="1" edge="1">
          <mxGeometry width="100" height="100" relative="1" as="geometry">
            <mxPoint x="539" y="215" as="sourcePoint" />
            <mxPoint x="627" y="215" as="targetPoint" />
            <Array as="points">
              <mxPoint x="579" y="215" />
            </Array>
          </mxGeometry>
        </mxCell>
      </root>
    </mxGraphModel>
  </diagram>
</mxfile>
